<svg width="62" height="62" viewBox="0 0 62 62" fill="none" xmlns="http://www.w3.org/2000/svg">
<circle cx="31" cy="30.9995" r="30.5" fill="#1D1D22" fill-opacity="0.5" stroke="#3D3D3D"/>
<path d="M16.8987 28.1801C16.4086 28.1801 16.0112 28.5774 16.0112 29.0675V42.1022C16.0112 42.5923 16.4086 42.9896 16.8987 42.9896H22.2455V28.1801H16.8987ZM45.9884 33.0808C45.9884 31.9542 45.3831 30.9663 44.4806 30.4253C44.8385 29.9093 45.0299 29.2962 45.0292 28.6683C45.0292 26.9625 43.6413 25.5746 41.9355 25.5746H35.4048C35.6049 24.6676 35.8787 23.3065 36.0693 21.8817C36.5653 18.1738 36.2263 16.1175 35.0025 15.4103C34.2395 14.9695 33.4168 14.8801 32.686 15.1583C32.1215 15.3733 31.359 15.902 30.9246 17.1996L29.2081 21.6938C28.3379 23.8428 25.6732 26.099 24.0205 27.3465V43.3823C27.0835 44.4555 30.2796 44.9995 33.5404 44.9995H40.6563C42.3622 44.9995 43.75 43.6117 43.75 41.9058C43.7507 41.33 43.5898 40.7655 43.2854 40.2767C44.3167 39.7744 45.0291 38.7154 45.0291 37.4933C45.0298 36.8654 44.8384 36.2523 44.4805 35.7364C45.3831 35.1953 45.9884 34.2074 45.9884 33.0808Z" fill="#F1F1F1"/>
</svg>
