<svg width="149" height="44" viewBox="0 0 149 44" fill="none" xmlns="http://www.w3.org/2000/svg">
<path d="M5.25684 1.48901H144.741C145.174 1.48901 145.603 1.56345 146.009 1.70874L146.182 1.77515C146.581 1.94065 146.949 2.17382 147.269 2.46362L147.402 2.59058C147.708 2.89624 147.958 3.25244 148.143 3.64233L148.218 3.81128C148.383 4.21065 148.478 4.63538 148.499 5.06616L148.504 5.25073V5.25171L148.505 39.197L148.5 39.3826C148.482 39.7515 148.41 40.1158 148.285 40.4636L148.219 40.6355C148.053 41.0346 147.82 41.4021 147.53 41.7214L147.403 41.8552C147.098 42.1605 146.741 42.4104 146.352 42.5945L146.183 42.6697C145.726 42.8582 145.237 42.9544 144.743 42.9539H5.25684C4.3212 42.9548 3.42046 42.6082 2.72949 41.9841L2.59473 41.8552C1.88834 41.1507 1.49065 40.1945 1.48926 39.197V5.25171L1.49414 5.06519C1.53835 4.19696 1.88172 3.37042 2.46582 2.72632L2.59473 2.59155C3.25697 1.93017 4.13976 1.5403 5.07031 1.4939L5.25684 1.48901Z" fill="#1D1D22" fill-opacity="0.5" stroke="#3D3D3D"/>
<path d="M33.4935 21.9883C33.4612 18.4062 36.4273 16.6635 36.5629 16.5823C34.8831 14.1339 32.2795 13.7993 31.3645 13.7727C29.1778 13.5426 27.0566 15.0808 25.9427 15.0808C24.8065 15.0808 23.0912 13.7949 21.2424 13.8327C18.8633 13.8694 16.6377 15.2464 15.417 17.3848C12.8979 21.7449 14.7767 28.1522 17.1902 31.6765C18.3975 33.4036 19.8083 35.3297 21.6548 35.2619C23.4614 35.1886 24.1362 34.1116 26.3162 34.1116C28.4763 34.1116 29.11 35.2619 30.9932 35.2186C32.932 35.1886 34.1527 33.4848 35.3178 31.7432C36.713 29.766 37.2733 27.8166 37.2955 27.7165C37.251 27.701 33.5312 26.2806 33.4935 21.9883ZM29.936 11.4543C30.9076 10.2395 31.5724 8.5868 31.3879 6.90967C29.9816 6.97191 28.2228 7.88216 27.2101 9.07026C26.314 10.1172 25.5136 11.8332 25.7204 13.447C27.3001 13.5648 28.9221 12.6501 29.936 11.4543Z" fill="white"/>
<path d="M59.6599 35.0141H57.1352L55.7522 30.6696H50.9452L49.6278 35.0141H47.1698L51.9335 20.2233H54.8751L59.6599 35.0141ZM55.3353 28.8468L54.0847 24.9847C53.9524 24.5901 53.7033 23.661 53.3387 22.1983H53.2942C53.1475 22.8274 52.9129 23.7565 52.5916 24.9847L51.3621 28.8468H55.3353ZM71.8865 29.5504C71.8865 31.3642 71.394 32.7979 70.4079 33.8504C69.5252 34.7874 68.428 35.2553 67.1195 35.2553C65.7065 35.2553 64.6904 34.7518 64.0734 33.7426V39.3386H61.7032V27.8543C61.7032 26.7151 61.6732 25.547 61.6154 24.3489H63.6999L63.8321 26.0394H63.8766C64.667 24.7657 65.8666 24.1289 67.4763 24.1289C68.7348 24.1289 69.7854 24.6257 70.6258 25.6204C71.4652 26.6173 71.8865 27.9266 71.8865 29.5504ZM69.4719 29.6371C69.4719 28.599 69.2384 27.7432 68.7693 27.0686C68.2568 26.3673 67.5686 26.0161 66.7059 26.0161C66.1212 26.0161 65.5898 26.2117 65.1151 26.5973C64.6392 26.9863 64.328 27.4942 64.1823 28.1233C64.1173 28.3586 64.0804 28.6007 64.0723 28.8446V30.624C64.0723 31.3987 64.3102 32.0533 64.786 32.589C65.2618 33.1225 65.8799 33.3903 66.6403 33.3903C67.533 33.3903 68.2279 33.0447 68.7248 32.3589C69.2228 31.6709 69.4719 30.764 69.4719 29.6371ZM84.1565 29.5504C84.1565 31.3642 83.664 32.7979 82.6779 33.8504C81.7941 34.7874 80.6979 35.2553 79.3883 35.2553C77.9754 35.2553 76.9592 34.7518 76.3422 33.7426V39.3386H73.9721V27.8543C73.9721 26.7151 73.9421 25.547 73.8842 24.3489H75.9687L76.101 26.0394H76.1455C76.9348 24.7657 78.1343 24.1289 79.7452 24.1289C81.0025 24.1289 82.0531 24.6257 82.8958 25.6204C83.734 26.6173 84.1565 27.9266 84.1565 29.5504ZM81.7407 29.6371C81.7407 28.599 81.5061 27.7432 81.037 27.0686C80.5245 26.3673 79.8386 26.0161 78.9759 26.0161C78.3911 26.0161 77.8597 26.2117 77.3828 26.5973C76.907 26.9863 76.5968 27.4942 76.4512 28.1233C76.3789 28.4167 76.34 28.6557 76.34 28.8446V30.624C76.34 31.3987 76.579 32.0533 77.0526 32.589C77.5284 33.1213 78.1466 33.3903 78.9092 33.3903C79.803 33.3903 80.4978 33.0447 80.9937 32.3589C81.4917 31.6709 81.7407 30.764 81.7407 29.6371ZM97.875 30.8652C97.875 32.1244 97.4348 33.148 96.5598 33.9382C95.5971 34.8007 94.253 35.233 92.5299 35.233C90.9379 35.233 89.6617 34.9263 88.6989 34.3117L89.247 32.3367C90.2864 32.9524 91.4282 33.2592 92.6711 33.2592C93.5649 33.2592 94.2597 33.0569 94.7555 32.6557C95.2525 32.2533 95.5037 31.7154 95.5037 31.0441C95.5037 30.4428 95.2958 29.9394 94.8878 29.5292C94.4776 29.1202 93.7995 28.739 92.8467 28.3889C90.2564 27.4231 88.9602 26.0105 88.9602 24.1522C88.9602 22.9385 89.4182 21.9449 90.332 21.168C91.2459 20.3923 92.4576 20.0044 93.9651 20.0044C95.3114 20.0044 96.4331 20.2389 97.3236 20.7068L96.7288 22.6385C95.8906 22.185 94.9445 21.9583 93.8862 21.9583C93.0502 21.9583 92.3943 22.1639 91.9251 22.5729C91.5305 22.9385 91.3303 23.3842 91.3303 23.9133C91.3303 24.4967 91.5582 24.9813 92.0118 25.3614C92.4054 25.7115 93.1235 26.0927 94.1619 26.5017C95.4359 27.0152 96.372 27.6132 96.9712 28.3C97.5748 28.9869 97.875 29.8438 97.875 30.8652ZM105.731 26.1272H103.119V31.3053C103.119 32.6223 103.579 33.2792 104.502 33.2792C104.925 33.2792 105.277 33.2436 105.555 33.1691L105.62 34.9685C105.153 35.143 104.539 35.2308 103.777 35.2308C102.841 35.2308 102.11 34.9452 101.581 34.3739C101.056 33.8026 100.791 32.8457 100.791 31.4987V26.1227H99.2346V24.3445H100.791V22.3917L103.119 21.6893V24.3445H105.731V26.1272ZM117.496 29.5937C117.496 31.233 117.026 32.579 116.09 33.6315C115.111 34.7151 113.808 35.2553 112.184 35.2553C110.616 35.2553 109.37 34.7362 108.441 33.6993C107.511 32.6601 107.047 31.3509 107.047 29.7715C107.047 28.1189 107.527 26.7651 108.484 25.7126C109.443 24.659 110.735 24.1322 112.359 24.1322C113.925 24.1322 115.182 24.6523 116.134 25.6904C117.043 26.6974 117.496 27.9977 117.496 29.5937ZM115.039 29.6482C115.039 28.6712 114.827 27.8332 114.404 27.1319C113.907 26.285 113.196 25.8616 112.274 25.8616C111.324 25.8616 110.596 26.285 110.101 27.1319C109.676 27.8332 109.465 28.6857 109.465 29.6926C109.465 30.6707 109.676 31.5109 110.101 32.21C110.613 33.0569 111.328 33.4803 112.254 33.4803C113.16 33.4803 113.87 33.048 114.384 32.1889C114.82 31.4709 115.039 30.6273 115.039 29.6482ZM125.203 26.4328C124.957 26.3883 124.707 26.3664 124.456 26.3673C123.622 26.3673 122.977 26.6807 122.524 27.312C122.13 27.8677 121.932 28.5701 121.932 29.4181V35.0141H119.562V27.7076C119.564 26.5881 119.541 25.4686 119.493 24.35H121.558L121.645 26.3906H121.71C121.961 25.6893 122.355 25.1236 122.895 24.7001C123.39 24.3301 123.991 24.1297 124.608 24.1289C124.827 24.1289 125.025 24.1444 125.201 24.1722L125.203 26.4328ZM135.803 29.1769C135.809 29.5371 135.78 29.8971 135.717 30.2517H128.606C128.633 31.3053 128.977 32.1122 129.638 32.6679C130.237 33.1636 131.012 33.4125 131.963 33.4125C133.016 33.4125 133.977 33.2458 134.841 32.9091L135.212 34.5529C134.202 34.993 133.011 35.2119 131.635 35.2119C129.981 35.2119 128.683 34.7251 127.738 33.7537C126.795 32.7813 126.323 31.4742 126.323 29.8371C126.323 28.23 126.762 26.8907 127.641 25.8227C128.562 24.6824 129.806 24.1122 131.371 24.1122C132.908 24.1122 134.072 24.6824 134.863 25.8227C135.489 26.7262 135.803 27.8466 135.803 29.1769ZM133.543 28.5623C133.56 27.8588 133.404 27.2531 133.083 26.7407C132.673 26.0805 132.041 25.7515 131.195 25.7515C130.42 25.7515 129.789 26.0727 129.309 26.7174C128.914 27.2297 128.679 27.8454 128.607 28.5601L133.543 28.5623Z" fill="white"/>
<path d="M50.2614 14.994C49.6021 14.994 49.0318 14.9617 48.5571 14.9073V7.75642C49.2211 7.65389 49.892 7.60335 50.5638 7.60527C53.2819 7.60527 54.5337 8.94231 54.5337 11.1218C54.5337 13.6358 53.0551 14.994 50.2614 14.994ZM50.6594 8.52219C50.2925 8.52219 49.9801 8.54442 49.7211 8.59777V14.0337C49.8612 14.0559 50.1302 14.0659 50.5082 14.0659C52.2891 14.0659 53.303 13.0523 53.303 11.154C53.303 9.46134 52.3859 8.52219 50.6594 8.52219ZM58.4347 15.0484C56.9028 15.0484 55.91 13.9048 55.91 12.3521C55.91 10.7339 56.9239 9.58026 58.5214 9.58026C60.0311 9.58026 61.0461 10.6694 61.0461 12.2666C61.0461 13.9048 60 15.0484 58.4347 15.0484ZM58.4792 10.4316C57.6376 10.4316 57.0984 11.2185 57.0984 12.3188C57.0984 13.398 57.6487 14.1849 58.468 14.1849C59.2874 14.1849 59.8377 13.3435 59.8377 12.2966C59.8377 11.2296 59.2985 10.4316 58.4792 10.4316ZM69.7819 9.68807L68.1422 14.9295H67.0738L66.3946 12.6533C66.2257 12.0966 66.085 11.5316 65.9732 10.9606H65.951C65.8654 11.5319 65.7031 12.1043 65.5307 12.6533L64.8081 14.9295H63.7287L62.1856 9.68807H63.3829L63.9766 12.1799C64.1167 12.7734 64.2345 13.3335 64.3323 13.8626H64.3546C64.4402 13.4213 64.5802 12.8701 64.7859 12.191L65.5307 9.68918H66.4802L67.1928 12.1376C67.3651 12.7311 67.5051 13.3135 67.6141 13.8637H67.6452C67.7208 13.3246 67.8398 12.7522 68.001 12.1376L68.638 9.68918L69.7819 9.68807ZM75.8185 14.9295H74.6535V11.9198C74.6535 10.9929 74.2977 10.5283 73.5962 10.5283C72.9058 10.5283 72.4311 11.1218 72.4311 11.812V14.9295H71.2661V11.1863C71.2661 10.7228 71.255 10.226 71.2227 9.68696H72.2477L72.3022 10.4961H72.3344C72.6479 9.93591 73.2838 9.58026 73.9964 9.58026C75.097 9.58026 75.8196 10.4216 75.8196 11.7909L75.8185 14.9295ZM79.0314 14.9295H77.8652V7.28296H79.0314V14.9295ZM83.2792 15.0484C81.7484 15.0484 80.7545 13.9048 80.7545 12.3521C80.7545 10.7339 81.7684 9.58026 83.3648 9.58026C84.8757 9.58026 85.8895 10.6694 85.8895 12.2666C85.8907 13.9048 84.8434 15.0484 83.2792 15.0484ZM83.3226 10.4316C82.481 10.4316 81.9418 11.2185 81.9418 12.3188C81.9418 13.398 82.4933 14.1849 83.3104 14.1849C84.1308 14.1849 84.68 13.3435 84.68 12.2966C84.6811 11.2296 84.143 10.4316 83.3226 10.4316ZM90.4831 14.9295L90.3986 14.326H90.3675C90.0118 14.8117 89.4926 15.0484 88.8345 15.0484C87.8951 15.0484 87.228 14.3905 87.228 13.5058C87.228 12.2121 88.3498 11.543 90.2919 11.543V11.4463C90.2919 10.7561 89.9262 10.4105 89.2035 10.4105C88.6866 10.4105 88.233 10.5405 87.8339 10.7995L87.5971 10.0337C88.0818 9.73141 88.6866 9.58026 89.397 9.58026C90.7666 9.58026 91.4581 10.3027 91.4581 11.7486V13.6792C91.4581 14.2082 91.4814 14.6183 91.5337 14.9306L90.4831 14.9295ZM90.323 12.3188C89.029 12.3188 88.3798 12.6322 88.3798 13.3758C88.3798 13.9259 88.7144 14.1949 89.1791 14.1949C89.7716 14.1949 90.323 13.7425 90.323 13.1279V12.3188ZM97.1156 14.9295L97.0611 14.0882H97.0289C96.6943 14.7239 96.1317 15.0484 95.3458 15.0484C94.0817 15.0484 93.1457 13.937 93.1457 12.3733C93.1457 10.7339 94.1162 9.57915 95.4414 9.57915C96.1429 9.57915 96.6398 9.81588 96.9199 10.2916H96.9433V7.28296H98.1095V13.5169C98.1095 14.0237 98.1217 14.4983 98.1528 14.9295H97.1156ZM96.9433 11.8453C96.9433 11.1118 96.4575 10.4861 95.716 10.4861C94.8522 10.4861 94.3241 11.2518 94.3241 12.3299C94.3241 13.3869 94.8722 14.1104 95.6926 14.1104C96.4252 14.1104 96.9433 13.4736 96.9433 12.7189V11.8453ZM105.503 15.0484C103.973 15.0484 102.98 13.9048 102.98 12.3521C102.98 10.7339 103.994 9.58026 105.59 9.58026C107.101 9.58026 108.115 10.6694 108.115 12.2666C108.116 13.9048 107.07 15.0484 105.503 15.0484ZM105.547 10.4316C104.706 10.4316 104.167 11.2185 104.167 12.3188C104.167 13.398 104.717 14.1849 105.536 14.1849C106.356 14.1849 106.905 13.3435 106.905 12.2966C106.908 11.2296 106.368 10.4316 105.547 10.4316ZM114.381 14.9295H113.214V11.9198C113.214 10.9929 112.859 10.5283 112.157 10.5283C111.467 10.5283 110.993 11.1218 110.993 11.812V14.9295H109.827V11.1863C109.827 10.7228 109.816 10.226 109.784 9.68696H110.809L110.863 10.4961H110.895C111.208 9.93591 111.845 9.57915 112.556 9.57915C113.657 9.57915 114.381 10.4205 114.381 11.7898V14.9295ZM122.219 10.5616H120.937V13.1068C120.937 13.7547 121.162 14.0782 121.616 14.0782C121.821 14.0782 121.993 14.0559 122.132 14.0237L122.165 14.9084C121.939 14.9951 121.637 15.0384 121.261 15.0384C120.343 15.0384 119.793 14.5316 119.793 13.2046V10.5616H119.029V9.68807H119.793V8.7278L120.937 8.38215V9.68696H122.219V10.5616ZM128.387 14.9295H127.223V11.942C127.223 11.004 126.868 10.5294 126.166 10.5294C125.562 10.5294 125 10.9395 125 11.7698V14.9295H123.836V7.28296H125V10.4316H125.023C125.39 9.86034 125.921 9.57915 126.599 9.57915C127.709 9.57915 128.387 10.4416 128.387 11.812V14.9295ZM134.706 12.5889H131.21C131.232 13.5814 131.889 14.1415 132.862 14.1415C133.379 14.1415 133.854 14.0548 134.275 13.8937L134.456 14.7028C133.96 14.9184 133.376 15.0262 132.697 15.0262C131.057 15.0262 130.087 13.9904 130.087 12.3844C130.087 10.7773 131.081 9.56915 132.566 9.56915C133.906 9.56915 134.746 10.5616 134.746 12.0609C134.753 12.2379 134.74 12.4151 134.706 12.5889ZM133.638 11.7586C133.638 10.9495 133.23 10.3783 132.485 10.3783C131.815 10.3783 131.286 10.9606 131.211 11.7586H133.638Z" fill="white"/>
</svg>
