<svg width="150" height="45" viewBox="0 0 150 45" fill="none" xmlns="http://www.w3.org/2000/svg">
<path d="M5.55566 0.944336H144.444C147.223 0.944336 149.5 3.22369 149.5 6.00879V39.3965C149.5 42.1815 147.223 44.4609 144.444 44.4609H5.55566C2.77715 44.4609 0.500181 42.1814 0.5 39.3965V6.00879C0.500062 3.22369 2.77703 0.944336 5.55566 0.944336Z" fill="#1D1D22" fill-opacity="0.5" stroke="#3D3D3D"/>
<path d="M52.6874 11.8444C52.6874 12.7768 52.4117 13.5193 51.8596 14.0732C51.2325 14.7318 50.4151 15.0614 49.4104 15.0614C48.4481 15.0614 47.63 14.7275 46.9572 14.0589C46.2833 13.3907 45.9469 12.5621 45.9469 11.5735C45.9469 10.5845 46.2833 9.75642 46.9572 9.08769C47.63 8.41957 48.4481 8.08521 49.4104 8.08521C49.8878 8.08521 50.3449 8.17874 50.7789 8.36525C51.2129 8.55221 51.561 8.80039 51.8215 9.1112L51.2355 9.6985C50.7941 9.17032 50.1865 8.90643 49.4104 8.90643C48.7086 8.90643 48.1018 9.15341 47.5897 9.64768C47.0775 10.1424 46.8214 10.7841 46.8214 11.5735C46.8214 12.363 47.0775 13.0046 47.5897 13.4994C48.1018 13.9937 48.7086 14.2406 49.4104 14.2406C50.1548 14.2406 50.7755 13.9923 51.2724 13.4951C51.5949 13.1711 51.7815 12.7208 51.8314 12.1426H49.4103V11.3405H52.6409C52.6721 11.5149 52.6873 11.6823 52.6873 11.8444" fill="white"/>
<path d="M52.6875 11.8444H52.5763C52.5754 12.7555 52.3098 13.4632 51.7811 13.9945L51.7799 13.9954L51.7794 13.9963C51.1722 14.6322 50.3917 14.9487 49.4104 14.9501C48.4739 14.9487 47.69 14.6288 47.0354 13.9801C46.3823 13.3302 46.0593 12.5368 46.0581 11.5735C46.0593 10.6097 46.3823 9.81675 47.0354 9.16728C47.69 8.51821 48.4739 8.1978 49.4104 8.19645C49.8735 8.19645 50.3145 8.28698 50.7351 8.46734C51.1561 8.6491 51.4886 8.88728 51.7364 9.18298L51.8215 9.11116L51.743 9.03248L51.157 9.62018L51.2355 9.69846L51.3211 9.62723C50.8592 9.0729 50.2109 8.79345 49.4104 8.7951C48.6826 8.7942 48.0424 9.05469 47.5129 9.56771C46.9782 10.0824 46.7095 10.7601 46.7104 11.5735C46.7095 12.3869 46.9782 13.0646 47.5129 13.5793C48.0424 14.0923 48.6826 14.3528 49.4104 14.3519C50.1795 14.3532 50.835 14.0919 51.351 13.5737C51.6956 13.2276 51.891 12.7482 51.9422 12.1521L51.9525 12.0312H49.5215V11.4517H52.641V11.3405L52.5315 11.36C52.5619 11.5288 52.5763 11.6891 52.5763 11.8444H52.7985C52.7985 11.6752 52.7829 11.5014 52.7503 11.3206L52.7339 11.2292H49.2994V12.2538H51.8314V12.1425L51.7208 12.133C51.6718 12.693 51.4938 13.1147 51.1939 13.4164C50.7165 13.8928 50.1305 14.1279 49.4104 14.1293C48.7347 14.1284 48.1614 13.8954 47.667 13.4194C47.1774 12.945 46.9339 12.3395 46.9327 11.5735C46.9339 10.8075 47.1774 10.2019 47.667 9.72762C48.1614 9.25161 48.7347 9.01858 49.4104 9.01768C50.1618 9.01948 50.7291 9.26811 51.1506 9.77023L51.2287 9.86326L51.9001 9.18989L51.9721 9.11776L51.9066 9.03984C51.6336 8.71388 51.2699 8.45514 50.8228 8.26308C50.3749 8.07041 49.9023 7.97388 49.4104 7.97388C48.4227 7.97303 47.5702 8.32079 46.8788 9.00903C46.1848 9.69591 45.835 10.5593 45.8359 11.5735C45.835 12.5872 46.1848 13.4511 46.8792 14.1384C47.5702 14.8262 48.4227 15.1735 49.4104 15.1726C50.4391 15.1735 51.2925 14.8313 51.94 14.1501L51.8597 14.0732L51.9382 14.1519C52.5138 13.5759 52.7993 12.7977 52.7985 11.8444H52.6875ZM57.8089 9.05509H54.7729V11.1723H57.5108V11.9747H54.7729V14.0919H57.8089V14.9122H53.917V8.23477H57.8089V9.05509Z" fill="white"/>
<path d="M57.8088 9.05515V8.94386H54.6617V11.2836H57.3995V11.8631L54.6616 11.8634V14.2032H57.6976V14.801H54.028V8.34611H57.6976V9.05515H57.8088H57.9199V8.12354H53.8058V15.0235H57.9199V13.9806H54.8839V12.086H57.6218V11.0611H54.8839V9.16643H57.9199V9.05515H57.8088ZM61.4212 14.9123H60.564V9.0551H58.702V8.23477H63.2832V9.0551H61.4212V14.9122" fill="white"/>
<path d="M61.4211 14.9123V14.801H60.675V8.94386H58.813V8.34616H63.172V8.94386H61.31V14.9123H61.4211H61.5323V9.16643H63.3942V8.12354H58.5908V9.16639H60.4528V15.0235H61.5323V14.9122H61.4211M66.5978 14.9123V8.23477H67.4541V14.9122H66.5978" fill="white"/>
<path d="M66.598 14.9123H66.7092V8.34611H67.3432V14.801H66.598V14.9123V15.0235H67.5654V8.12354H66.4869V15.0235H66.598V14.9123M71.2542 14.9123H70.3971V9.0551H68.5351V8.23477H73.1163V9.0551H71.2542V14.9122" fill="white"/>
<path d="M71.254 14.9123V14.801H70.5079V8.94384H68.6461V8.34614H73.0049V8.94384H71.1429V14.9122H71.254H71.3652V9.16642H73.2271V8.12352H68.4238V9.16637H70.2857V15.0235H71.3652V14.9122H71.254M77.5327 13.4903C78.0261 13.9906 78.6299 14.2406 79.3439 14.2406C80.0579 14.2406 80.662 13.9906 81.1547 13.4903C81.6486 12.9899 81.896 12.3503 81.896 11.5735C81.896 10.7968 81.6486 10.1571 81.1547 9.65678C80.662 9.15641 80.0579 8.90643 79.3439 8.90643C78.6299 8.90643 78.0261 9.15641 77.5327 9.65678C77.0401 10.1571 76.7927 10.7967 76.7927 11.5735C76.7927 12.3503 77.0401 12.9899 77.5327 13.4903ZM81.7884 14.0493C81.1329 14.7244 80.3179 15.0614 79.3439 15.0614C78.3691 15.0614 77.5543 14.7244 76.9004 14.0493C76.2445 13.375 75.9181 12.5496 75.9181 11.5735C75.9181 10.5975 76.2445 9.77192 76.9004 9.09774C77.5544 8.42252 78.3691 8.08521 79.3439 8.08521C80.3127 8.08521 81.1256 8.42432 81.7841 9.1021C82.4416 9.77982 82.7706 10.6036 82.7706 11.5735C82.7706 12.5496 82.4424 13.375 81.7884 14.0493Z" fill="white"/>
<path d="M77.5327 13.4903L77.4537 13.5685C77.9654 14.0889 78.6039 14.3532 79.3439 14.3519C80.0834 14.3532 80.7228 14.0889 81.2337 13.5685C81.7488 13.0476 82.0079 12.3738 82.0071 11.5735C82.0078 10.7732 81.7488 10.0993 81.2337 9.57847C80.7228 9.05809 80.0834 8.7938 79.3439 8.79511C78.6039 8.7938 77.9654 9.05809 77.4537 9.57847C76.9398 10.0993 76.6802 10.7732 76.6816 11.5735C76.6802 12.3738 76.9398 13.0476 77.4537 13.5685L77.5327 13.4903L77.6117 13.412C77.1404 12.9316 76.9047 12.3273 76.9038 11.5735C76.9047 10.8197 77.1404 10.2154 77.6117 9.73497C78.0873 9.25466 78.6555 9.01903 79.3439 9.01773C80.0318 9.01903 80.6012 9.25466 81.0757 9.73497C81.5479 10.2154 81.7836 10.8197 81.7844 11.5735C81.7836 12.3272 81.5479 12.9316 81.0757 13.412C80.6012 13.8924 80.0318 14.1279 79.3439 14.1292C78.6555 14.1279 78.0874 13.8924 77.6117 13.412L77.5327 13.4903ZM81.7883 14.0493L81.7089 13.9719C81.0718 14.6258 80.2927 14.9488 79.3439 14.9501C78.3947 14.9487 77.6156 14.6258 76.9796 13.9719C76.3439 13.3159 76.0301 12.5247 76.0292 11.5735C76.0301 10.6223 76.3439 9.8311 76.9796 9.17508C77.6156 8.52121 78.3946 8.19781 79.3439 8.1965C80.2866 8.19781 81.0639 8.52256 81.7045 9.17983C82.3426 9.83891 82.6581 10.6288 82.6595 11.5735C82.6581 12.5247 82.3435 13.3159 81.7089 13.9719L81.7883 14.0493L81.8682 14.1266C82.5418 13.4337 82.8824 12.5742 82.8817 11.5735C82.8825 10.5785 82.5405 9.72072 81.8638 9.02473C81.1868 8.326 80.3387 7.97268 79.3439 7.97388C78.3439 7.97268 77.4932 8.32435 76.8204 9.02038V9.01988C76.1456 9.71326 75.8061 10.5728 75.807 11.5735C75.8061 12.5742 76.1456 13.4337 76.8204 14.127L76.8235 14.1302L76.8204 14.1266C77.4932 14.8226 78.3439 15.1735 79.3439 15.1726C80.3434 15.1735 81.1941 14.8226 81.8682 14.1266L81.7883 14.0493ZM83.9727 14.9123V8.23472H85.0153L88.2553 13.4293H88.2922L88.2553 12.1425V8.23472H89.1126V14.9122H88.2184L84.8287 9.46583H84.7918L84.8287 10.7531V14.9122H83.9728" fill="white"/>
<path d="M83.9732 14.9123H84.0843V8.34611H84.9541L88.1941 13.5407H88.4068L88.3669 12.1409V8.34616H89.0019V14.801H88.2806L84.8908 9.35465H84.6781L84.718 10.755V14.801H83.9733V14.9123V15.0236H84.9402V10.7515L84.9034 9.46293L84.7922 9.46594V9.57722H84.8291V9.46594L84.7349 9.52511L88.1573 15.0236H89.2241V8.12354H88.1447V12.1439L88.1816 13.4324L88.2927 13.4294V13.3181H88.2558V13.4294L88.35 13.3703L85.0773 8.12354H83.8622V15.0236H83.9733V14.9123M118.818 33.8317H120.892V19.919H118.818L118.818 33.8317ZM137.493 24.9307L135.116 30.9625H135.045L132.578 24.9307H130.345L134.044 33.3613L131.935 38.0508H134.098L139.798 24.9307L137.493 24.9307ZM125.735 32.2515C125.055 32.2515 124.108 31.9115 124.108 31.0699C124.108 29.9961 125.288 29.5844 126.306 29.5844C127.218 29.5844 127.646 29.7813 128.201 30.0501C128.039 31.3386 126.932 32.2515 125.735 32.2515ZM125.985 24.6263C124.484 24.6263 122.929 25.2888 122.286 26.7565L124.126 27.526C124.519 26.7565 125.252 26.5057 126.021 26.5057C127.093 26.5057 128.183 27.1504 128.201 28.2959V28.4389C127.825 28.2241 127.022 27.902 126.038 27.902C124.055 27.902 122.035 28.9936 122.035 31.0342C122.035 32.8958 123.662 34.0951 125.484 34.0951C126.878 34.0951 127.646 33.4687 128.129 32.7349H128.201V33.8087H130.202V28.4745C130.202 26.0049 128.362 24.6263 125.985 24.6263ZM113.172 26.6243H110.223V21.8554H113.172C114.722 21.8554 115.602 23.1408 115.602 24.2398C115.602 25.318 114.722 26.6243 113.172 26.6243ZM113.118 19.919H108.151V33.8317H110.223V28.5606H113.118C115.416 28.5606 117.675 26.8943 117.675 24.2398C117.675 21.5854 115.416 19.919 113.118 19.919ZM86.0283 32.2541C84.596 32.2541 83.3968 31.0529 83.3968 29.4031C83.3968 27.736 84.596 26.5166 86.0283 26.5166C87.4425 26.5166 88.5522 27.736 88.5522 29.4031C88.5522 31.0529 87.4424 32.2541 86.0283 32.2541ZM88.409 25.7097H88.3374C87.8721 25.154 86.9767 24.652 85.8491 24.652C83.4862 24.652 81.3205 26.7317 81.3205 29.4031C81.3205 32.0568 83.4862 34.1187 85.8491 34.1187C86.9767 34.1187 87.8721 33.6165 88.3374 33.0431H88.409V33.7243C88.409 35.5355 87.4425 36.5036 85.8851 36.5036C84.6142 36.5036 83.8266 35.5889 83.504 34.8181L81.6964 35.5711C82.2155 36.8261 83.5939 38.3682 85.8851 38.3682C88.3196 38.3682 90.3782 36.9335 90.3782 33.4374V24.9389H88.409V25.7097ZM91.81 33.8317H93.8865V19.9185H91.81V33.8317ZM96.9476 29.2419C96.8938 27.4129 98.3617 26.4808 99.4177 26.4808C100.242 26.4808 100.939 26.893 101.172 27.4852L96.9476 29.2419ZM103.392 27.6642C102.998 26.606 101.798 24.652 99.346 24.652C96.9116 24.652 94.889 26.5704 94.889 29.3853C94.889 32.039 96.8938 34.1187 99.5787 34.1187C101.745 34.1187 102.998 32.7918 103.517 32.021L101.906 30.945C101.369 31.7341 100.635 32.2541 99.5787 32.2541C98.5227 32.2541 97.771 31.7698 97.2874 30.8198L103.606 28.202L103.392 27.6642ZM53.0492 26.1044V28.1124H57.8464C57.7032 29.2419 57.3273 30.0665 56.7544 30.6403C56.0565 31.3398 54.9646 32.1106 53.0492 32.1106C50.0955 32.1106 47.7866 29.7261 47.7866 26.7677C47.7866 23.8094 50.0955 21.4246 53.0492 21.4246C54.6425 21.4246 55.8057 22.0523 56.665 22.8591L58.0791 21.4428C56.8799 20.2951 55.2866 19.4166 53.0492 19.4166C49.0036 19.4166 45.6025 22.7157 45.6025 26.7677C45.6025 30.8198 49.0036 34.1187 53.0492 34.1187C55.2332 34.1187 56.8799 33.4018 58.1686 32.0568C59.4932 30.7299 59.9051 28.8654 59.9051 27.3595C59.9051 26.893 59.8695 26.463 59.7974 26.1044H53.0492ZM65.3591 32.2541C63.9268 32.2541 62.6916 31.0707 62.6916 29.3853C62.6916 27.682 63.9268 26.5166 65.3591 26.5166C66.7909 26.5166 68.0261 27.682 68.0261 29.3853C68.0261 31.0707 66.7909 32.2541 65.3591 32.2541ZM65.3591 24.652C62.7453 24.652 60.6151 26.6421 60.6151 29.3853C60.6151 32.1106 62.7453 34.1187 65.3591 34.1187C67.9723 34.1187 70.1026 32.1106 70.1026 29.3853C70.1026 26.6421 67.9723 24.652 65.3591 24.652ZM75.7071 32.2541C74.2754 32.2541 73.04 31.0707 73.04 29.3853C73.04 27.682 74.2754 26.5166 75.7071 26.5166C77.139 26.5166 78.3742 27.682 78.3742 29.3853C78.3742 31.0707 77.139 32.2541 75.7071 32.2541ZM75.7071 24.652C73.0935 24.652 70.9637 26.6421 70.9637 29.3853C70.9637 32.1106 73.0935 34.1187 75.7071 34.1187C78.3205 34.1187 80.4507 32.1106 80.4507 29.3853C80.4507 26.6421 78.3204 24.652 75.7071 24.652Z" fill="white"/>
<path d="M11.6765 8.91498C11.3036 9.25194 11.0811 9.81398 11.0811 10.56V10.3914V35.0101V34.848C11.0811 35.537 11.272 36.069 11.5953 36.4117L11.6778 36.4908V36.4912C11.9395 36.7277 12.2751 36.8533 12.6596 36.8529C13.0354 36.8529 13.4582 36.7329 13.9044 36.4795L30.0324 27.301L35.5723 24.1479C36.2759 23.7476 36.6708 23.2311 36.7369 22.7051V22.7029C36.6708 22.1756 36.2759 21.6596 35.5723 21.2592L30.032 18.1065L13.9045 8.92799C13.4573 8.67415 13.0342 8.55371 12.6574 8.55371C12.2733 8.55371 11.9382 8.6789 11.6766 8.91498H11.6765Z" fill="#00C1FF"/>
<path d="M11.6779 36.4907L11.5953 36.4116C11.272 36.069 11.0811 35.5369 11.0811 34.8479V35.01V10.3974V10.5599C11.0811 9.81388 11.3036 9.25184 11.6765 8.91488L25.443 22.7032L11.6779 36.4907Z" fill="url(#paint0_linear_419_5208)"/>
<path d="M30.0322 27.301L25.4427 22.7034L30.0318 18.1065L35.5721 21.2591C36.2756 21.6596 36.6706 22.1756 36.7366 22.7029V22.705C36.6706 23.2311 36.2756 23.7476 35.5721 24.1479L30.0322 27.301" fill="url(#paint1_linear_419_5208)"/>
<path d="M12.6595 36.853C12.2749 36.8534 11.9394 36.7277 11.6777 36.4913V36.4909L25.4429 22.7034L30.0323 27.3011L13.9042 36.4796C13.458 36.733 13.0352 36.853 12.6595 36.853Z" fill="url(#paint2_linear_419_5208)"/>
<path d="M25.4433 22.7034L11.6768 8.915C11.9384 8.67892 12.2736 8.55372 12.6576 8.55372C13.0344 8.55372 13.4576 8.67411 13.9047 8.928L30.0323 18.1065L25.4432 22.7034" fill="url(#paint3_linear_419_5208)"/>
<path d="M12.6599 37.0161C12.2754 37.0161 11.9394 36.8905 11.6777 36.654L11.6772 36.6544C11.6762 36.6533 11.675 36.6523 11.6738 36.6514L11.6022 36.5814C11.6 36.5792 11.5979 36.5766 11.5952 36.5741L11.6777 36.4914C11.9394 36.7279 12.2749 36.8535 12.6596 36.8531C13.0353 36.8531 13.4581 36.7331 13.9043 36.4797L30.0323 27.3012L30.1356 27.4047L30.031 27.4643L13.9042 36.6422C13.4976 36.8731 13.1108 36.9935 12.7615 37.0136C12.7276 37.0152 12.6938 37.0161 12.6599 37.0161Z" fill="url(#paint4_linear_419_5208)"/>
<path d="M11.5953 36.574C11.272 36.2314 11.0811 35.6997 11.0811 35.0103V34.8481C11.0811 35.5371 11.272 36.0692 11.5953 36.4118L11.6778 36.4909L11.5953 36.574Z" fill="url(#paint5_linear_419_5208)"/>
<path d="M30.1356 27.4045L30.0322 27.301L35.5721 24.1479C36.2757 23.7476 36.6707 23.2311 36.7367 22.705C36.7367 22.8981 36.6937 23.0911 36.6082 23.279C36.4359 23.6576 36.0905 24.0154 35.5721 24.3105L30.1356 27.4045" fill="url(#paint6_linear_419_5208)"/>
<path d="M36.737 22.7031C36.671 22.1758 36.276 21.6598 35.5725 21.2593L30.0321 18.1067L30.1354 18.0031H30.1359L35.5725 21.0972C36.3481 21.5389 36.7366 22.1209 36.737 22.7031Z" fill="url(#paint7_linear_419_5208)"/>
<path d="M11.0811 10.5601V10.39C11.0811 10.3287 11.0827 10.2687 11.0859 10.2105V10.2078C11.0859 10.207 11.0859 10.2062 11.0862 10.2053V10.1987C11.1196 9.60529 11.3036 9.14238 11.5953 8.83328L11.6765 8.91496C11.3036 9.25197 11.0811 9.81401 11.0811 10.5601Z" fill="url(#paint8_linear_419_5208)"/>
<path d="M30.0318 18.1064L13.9043 8.92787C13.4572 8.67403 13.0341 8.55364 12.6573 8.55364C12.2732 8.55364 11.9381 8.67883 11.6764 8.91491L11.5952 8.83319C11.6206 8.80629 11.6469 8.78034 11.6742 8.75541C11.6751 8.75451 11.6764 8.75361 11.6773 8.75276C11.9369 8.51848 12.2684 8.39329 12.6491 8.39104H12.6573C13.0341 8.39104 13.4572 8.51148 13.9043 8.76541L30.1356 18.0026L30.1352 18.0029L30.0318 18.1064Z" fill="url(#paint9_linear_419_5208)"/>
<defs>
<linearGradient id="paint0_linear_419_5208" x1="19.8787" y1="10.1372" x2="8.01505" y2="22.0199" gradientUnits="userSpaceOnUse">
<stop stop-color="#00A0FF"/>
<stop offset="0.00657" stop-color="#00A1FF"/>
<stop offset="0.2601" stop-color="#00BEFF"/>
<stop offset="0.5122" stop-color="#00D2FF"/>
<stop offset="0.7604" stop-color="#00DFFF"/>
<stop offset="1" stop-color="#00E3FF"/>
</linearGradient>
<linearGradient id="paint1_linear_419_5208" x1="37.5938" y1="22.6239" x2="10.7083" y2="22.6239" gradientUnits="userSpaceOnUse">
<stop stop-color="#FFE000"/>
<stop offset="0.4087" stop-color="#FFBD00"/>
<stop offset="0.7754" stop-color="#FFA500"/>
<stop offset="1" stop-color="#FF9C00"/>
</linearGradient>
<linearGradient id="paint2_linear_419_5208" x1="27.5957" y1="27.0747" x2="7.49193" y2="47.0638" gradientUnits="userSpaceOnUse">
<stop stop-color="#FF3A44"/>
<stop offset="1" stop-color="#C31162"/>
</linearGradient>
<linearGradient id="paint3_linear_419_5208" x1="8.12874" y1="6.8708" x2="17.0885" y2="15.7932" gradientUnits="userSpaceOnUse">
<stop stop-color="#32A071"/>
<stop offset="0.0685" stop-color="#2DA771"/>
<stop offset="0.4762" stop-color="#15CF74"/>
<stop offset="0.8009" stop-color="#06E775"/>
<stop offset="1" stop-color="#00F076"/>
</linearGradient>
<linearGradient id="paint4_linear_419_5208" x1="27.5857" y1="30.264" x2="11.4856" y2="46.3901" gradientUnits="userSpaceOnUse">
<stop stop-color="#CC2E36"/>
<stop offset="1" stop-color="#9C0E4E"/>
</linearGradient>
<linearGradient id="paint5_linear_419_5208" x1="12.915" y1="10.1374" x2="2.46328" y2="20.6061" gradientUnits="userSpaceOnUse">
<stop stop-color="#008DE0"/>
<stop offset="0.00657" stop-color="#008DE0"/>
<stop offset="0.2601" stop-color="#00A7E0"/>
<stop offset="0.5122" stop-color="#00B8E0"/>
<stop offset="0.7604" stop-color="#00C4E0"/>
<stop offset="1" stop-color="#00C7E0"/>
</linearGradient>
<linearGradient id="paint6_linear_419_5208" x1="37.5939" y1="22.704" x2="10.7083" y2="22.704" gradientUnits="userSpaceOnUse">
<stop stop-color="#E0C500"/>
<stop offset="0.4087" stop-color="#E0A600"/>
<stop offset="0.7754" stop-color="#E09100"/>
<stop offset="1" stop-color="#E08900"/>
</linearGradient>
<linearGradient id="paint7_linear_419_5208" x1="37.5942" y1="22.7042" x2="10.7087" y2="22.7042" gradientUnits="userSpaceOnUse">
<stop stop-color="#FFE840"/>
<stop offset="0.4087" stop-color="#FFCE40"/>
<stop offset="0.7754" stop-color="#FFBC40"/>
<stop offset="1" stop-color="#FFB540"/>
</linearGradient>
<linearGradient id="paint8_linear_419_5208" x1="12.9036" y1="10.1563" x2="2.83681" y2="19.8025" gradientUnits="userSpaceOnUse">
<stop stop-color="#40B8FF"/>
<stop offset="0.00657" stop-color="#40B9FF"/>
<stop offset="0.2601" stop-color="#40CEFF"/>
<stop offset="0.5122" stop-color="#40DDFF"/>
<stop offset="0.7604" stop-color="#40E7FF"/>
<stop offset="1" stop-color="#40EAFF"/>
</linearGradient>
<linearGradient id="paint9_linear_419_5208" x1="8.10832" y1="9.7867" x2="15.2977" y2="16.9878" gradientUnits="userSpaceOnUse">
<stop stop-color="#65B895"/>
<stop offset="0.0685" stop-color="#62BD95"/>
<stop offset="0.4762" stop-color="#50DB97"/>
<stop offset="0.8009" stop-color="#44ED98"/>
<stop offset="1" stop-color="#40F498"/>
</linearGradient>
</defs>
</svg>
