<svg width="108" height="108" viewBox="0 0 108 108" fill="none" xmlns="http://www.w3.org/2000/svg">
<rect x="0.5" y="0.5" width="107" height="107" rx="9.5" fill="#1D1D22" fill-opacity="0.5" stroke="#3D3D3D"/>
<path d="M52.9086 23.2812H49.5292V26.6607H52.9086V23.2812Z" fill="#DFDFDF"/>
<path d="M56.1898 23.2812H52.8103V26.6607H56.1898V23.2812Z" fill="#DFDFDF"/>
<path d="M62.7517 23.2812H59.3722V26.6607H62.7517V23.2812Z" fill="#DFDFDF"/>
<path d="M49.6276 26.5623H46.2482V29.9417H49.6276V26.5623Z" fill="#DFDFDF"/>
<path d="M52.9086 26.5623H49.5292V29.9417H52.9086V26.5623Z" fill="#DFDFDF"/>
<path d="M56.1898 26.5623H52.8103V29.9417H56.1898V26.5623Z" fill="#DFDFDF"/>
<path d="M59.4706 26.5623H56.0912V29.9417H59.4706V26.5623Z" fill="#DFDFDF"/>
<path d="M62.7517 26.5623H59.3722V29.9417H62.7517V26.5623Z" fill="#DFDFDF"/>
<path d="M49.6276 29.8433H46.2482V33.2227H49.6276V29.8433Z" fill="#DFDFDF"/>
<path d="M59.4706 29.8433H56.0912V33.2227H59.4706V29.8433Z" fill="#DFDFDF"/>
<path d="M62.7517 29.8433H59.3722V33.2227H62.7517V29.8433Z" fill="#DFDFDF"/>
<path d="M49.6276 33.124H46.2482V36.5035H49.6276V33.124Z" fill="#DFDFDF"/>
<path d="M52.9086 33.124H49.5292V36.5035H52.9086V33.124Z" fill="#DFDFDF"/>
<path d="M56.1898 33.124H52.8103V36.5035H56.1898V33.124Z" fill="#DFDFDF"/>
<path d="M62.7517 33.124H59.3722V36.5035H62.7517V33.124Z" fill="#DFDFDF"/>
<path d="M49.6276 36.4053H46.2482V39.7847H49.6276V36.4053Z" fill="#DFDFDF"/>
<path d="M56.1898 36.4053H52.8103V39.7847H56.1898V36.4053Z" fill="#DFDFDF"/>
<path d="M59.4706 36.4053H56.0912V39.7847H59.4706V36.4053Z" fill="#DFDFDF"/>
<path d="M49.6276 39.6863H46.2482V43.0657H49.6276V39.6863Z" fill="#DFDFDF"/>
<path d="M56.1898 39.6863H52.8103V43.0657H56.1898V39.6863Z" fill="#DFDFDF"/>
<path d="M62.7517 39.6863H59.3722V43.0657H62.7517V39.6863Z" fill="#DFDFDF"/>
<path d="M49.6276 42.9673H46.2482V46.3467H49.6276V42.9673Z" fill="#DFDFDF"/>
<path d="M56.1898 42.9673H52.8103V46.3467H56.1898V42.9673Z" fill="#DFDFDF"/>
<path d="M23.3795 46.248H20V49.6275H23.3795V46.248Z" fill="#DFDFDF"/>
<path d="M29.9416 46.248H26.5621V49.6275H29.9416V46.248Z" fill="#DFDFDF"/>
<path d="M33.2225 46.248H29.843V49.6275H33.2225V46.248Z" fill="#DFDFDF"/>
<path d="M36.5036 46.248H33.1241V49.6275H36.5036V46.248Z" fill="#DFDFDF"/>
<path d="M39.7846 46.248H36.4052V49.6275H39.7846V46.248Z" fill="#DFDFDF"/>
<path d="M43.0657 46.248H39.6863V49.6275H43.0657V46.248Z" fill="#DFDFDF"/>
<path d="M52.9086 46.248H49.5292V49.6275H52.9086V46.248Z" fill="#DFDFDF"/>
<path d="M59.4706 46.248H56.0912V49.6275H59.4706V46.248Z" fill="#DFDFDF"/>
<path d="M69.3139 46.248H65.9344V49.6275H69.3139V46.248Z" fill="#DFDFDF"/>
<path d="M72.5949 46.248H69.2155V49.6275H72.5949V46.248Z" fill="#DFDFDF"/>
<path d="M75.8758 46.248H72.4963V49.6275H75.8758V46.248Z" fill="#DFDFDF"/>
<path d="M79.1569 46.248H75.7775V49.6275H79.1569V46.248Z" fill="#DFDFDF"/>
<path d="M82.4379 46.248H79.0585V49.6275H82.4379V46.248Z" fill="#DFDFDF"/>
<path d="M26.6606 49.5293H23.2811V52.9088H26.6606V49.5293Z" fill="#DFDFDF"/>
<path d="M29.9416 49.5293H26.5621V52.9088H29.9416V49.5293Z" fill="#DFDFDF"/>
<path d="M49.6276 49.5293H46.2482V52.9088H49.6276V49.5293Z" fill="#DFDFDF"/>
<path d="M52.9086 49.5293H49.5292V52.9088H52.9086V49.5293Z" fill="#DFDFDF"/>
<path d="M56.1898 49.5293H52.8103V52.9088H56.1898V49.5293Z" fill="#DFDFDF"/>
<path d="M59.4706 49.5293H56.0912V52.9088H59.4706V49.5293Z" fill="#DFDFDF"/>
<path d="M62.7517 49.5293H59.3722V52.9088H62.7517V49.5293Z" fill="#DFDFDF"/>
<path d="M66.0328 49.5293H62.6533V52.9088H66.0328V49.5293Z" fill="#DFDFDF"/>
<path d="M69.3139 49.5293H65.9344V52.9088H69.3139V49.5293Z" fill="#DFDFDF"/>
<path d="M72.5949 49.5293H69.2155V52.9088H72.5949V49.5293Z" fill="#DFDFDF"/>
<path d="M82.4379 49.5293H79.0585V52.9088H82.4379V49.5293Z" fill="#DFDFDF"/>
<path d="M89.0002 49.5293H85.6207V52.9088H89.0002V49.5293Z" fill="#DFDFDF"/>
<path d="M26.6606 52.8101H23.2811V56.1895H26.6606V52.8101Z" fill="#DFDFDF"/>
<path d="M36.5036 52.8101H33.1241V56.1895H36.5036V52.8101Z" fill="#DFDFDF"/>
<path d="M43.0657 52.8101H39.6863V56.1895H43.0657V52.8101Z" fill="#DFDFDF"/>
<path d="M49.6276 52.8101H46.2482V56.1895H49.6276V52.8101Z" fill="#DFDFDF"/>
<path d="M52.9086 52.8101H49.5292V56.1895H52.9086V52.8101Z" fill="#DFDFDF"/>
<path d="M62.7517 52.8101H59.3722V56.1895H62.7517V52.8101Z" fill="#DFDFDF"/>
<path d="M69.3139 52.8101H65.9344V56.1895H69.3139V52.8101Z" fill="#DFDFDF"/>
<path d="M72.5949 52.8101H69.2155V56.1895H72.5949V52.8101Z" fill="#DFDFDF"/>
<path d="M79.1569 52.8101H75.7775V56.1895H79.1569V52.8101Z" fill="#DFDFDF"/>
<path d="M82.4379 52.8101H79.0585V56.1895H82.4379V52.8101Z" fill="#DFDFDF"/>
<path d="M85.7191 52.8101H82.3396V56.1895H85.7191V52.8101Z" fill="#DFDFDF"/>
<path d="M23.3795 56.0911H20V59.4705H23.3795V56.0911Z" fill="#DFDFDF"/>
<path d="M26.6606 56.0911H23.2811V59.4705H26.6606V56.0911Z" fill="#DFDFDF"/>
<path d="M29.9416 56.0911H26.5621V59.4705H29.9416V56.0911Z" fill="#DFDFDF"/>
<path d="M33.2225 56.0911H29.843V59.4705H33.2225V56.0911Z" fill="#DFDFDF"/>
<path d="M39.7846 56.0911H36.4052V59.4705H39.7846V56.0911Z" fill="#DFDFDF"/>
<path d="M49.6276 56.0911H46.2482V59.4705H49.6276V56.0911Z" fill="#DFDFDF"/>
<path d="M52.9086 56.0911H49.5292V59.4705H52.9086V56.0911Z" fill="#DFDFDF"/>
<path d="M56.1898 56.0911H52.8103V59.4705H56.1898V56.0911Z" fill="#DFDFDF"/>
<path d="M59.4706 56.0911H56.0912V59.4705H59.4706V56.0911Z" fill="#DFDFDF"/>
<path d="M62.7517 56.0911H59.3722V59.4705H62.7517V56.0911Z" fill="#DFDFDF"/>
<path d="M66.0328 56.0911H62.6533V59.4705H66.0328V56.0911Z" fill="#DFDFDF"/>
<path d="M69.3139 56.0911H65.9344V59.4705H69.3139V56.0911Z" fill="#DFDFDF"/>
<path d="M72.5949 56.0911H69.2155V59.4705H72.5949V56.0911Z" fill="#DFDFDF"/>
<path d="M75.8758 56.0911H72.4963V59.4705H75.8758V56.0911Z" fill="#DFDFDF"/>
<path d="M79.1569 56.0911H75.7775V59.4705H79.1569V56.0911Z" fill="#DFDFDF"/>
<path d="M82.4379 56.0911H79.0585V59.4705H82.4379V56.0911Z" fill="#DFDFDF"/>
<path d="M23.3795 59.3721H20V62.7515H23.3795V59.3721Z" fill="#DFDFDF"/>
<path d="M26.6606 59.3721H23.2811V62.7515H26.6606V59.3721Z" fill="#DFDFDF"/>
<path d="M39.7846 59.3721H36.4052V62.7515H39.7846V59.3721Z" fill="#DFDFDF"/>
<path d="M43.0657 59.3721H39.6863V62.7515H43.0657V59.3721Z" fill="#DFDFDF"/>
<path d="M46.3469 59.3721H42.9674V62.7515H46.3469V59.3721Z" fill="#DFDFDF"/>
<path d="M49.6276 59.3721H46.2482V62.7515H49.6276V59.3721Z" fill="#DFDFDF"/>
<path d="M52.9086 59.3721H49.5292V62.7515H52.9086V59.3721Z" fill="#DFDFDF"/>
<path d="M62.7517 59.3721H59.3722V62.7515H62.7517V59.3721Z" fill="#DFDFDF"/>
<path d="M75.8758 59.3721H72.4963V62.7515H75.8758V59.3721Z" fill="#DFDFDF"/>
<path d="M79.1569 59.3721H75.7775V62.7515H79.1569V59.3721Z" fill="#DFDFDF"/>
<path d="M49.6276 62.6533H46.2482V66.0328H49.6276V62.6533Z" fill="#DFDFDF"/>
<path d="M62.7517 62.6533H59.3722V66.0328H62.7517V62.6533Z" fill="#DFDFDF"/>
<path d="M72.5949 62.6533H69.2155V66.0328H72.5949V62.6533Z" fill="#DFDFDF"/>
<path d="M75.8758 62.6533H72.4963V66.0328H75.8758V62.6533Z" fill="#DFDFDF"/>
<path d="M85.7191 62.6533H82.3396V66.0328H85.7191V62.6533Z" fill="#DFDFDF"/>
<path d="M52.9086 65.9346H49.5292V69.314H52.9086V65.9346Z" fill="#DFDFDF"/>
<path d="M59.4706 65.9346H56.0912V69.314H59.4706V65.9346Z" fill="#DFDFDF"/>
<path d="M66.0328 65.9346H62.6533V69.314H66.0328V65.9346Z" fill="#DFDFDF"/>
<path d="M79.1569 65.9346H75.7775V69.314H79.1569V65.9346Z" fill="#DFDFDF"/>
<path d="M82.4379 65.9346H79.0585V69.314H82.4379V65.9346Z" fill="#DFDFDF"/>
<path d="M85.7191 65.9346H82.3396V69.314H85.7191V65.9346Z" fill="#DFDFDF"/>
<path d="M49.6276 69.2156H46.2482V72.595H49.6276V69.2156Z" fill="#DFDFDF"/>
<path d="M52.9086 69.2156H49.5292V72.595H52.9086V69.2156Z" fill="#DFDFDF"/>
<path d="M56.1898 69.2156H52.8103V72.595H56.1898V69.2156Z" fill="#DFDFDF"/>
<path d="M75.8758 69.2156H72.4963V72.595H75.8758V69.2156Z" fill="#DFDFDF"/>
<path d="M79.1569 69.2156H75.7775V72.595H79.1569V69.2156Z" fill="#DFDFDF"/>
<path d="M82.4379 69.2156H79.0585V72.595H82.4379V69.2156Z" fill="#DFDFDF"/>
<path d="M85.7191 69.2156H82.3396V72.595H85.7191V69.2156Z" fill="#DFDFDF"/>
<path d="M89.0002 69.2156H85.6207V72.595H89.0002V69.2156Z" fill="#DFDFDF"/>
<path d="M49.6276 72.4966H46.2482V75.876H49.6276V72.4966Z" fill="#DFDFDF"/>
<path d="M52.9086 72.4966H49.5292V75.876H52.9086V72.4966Z" fill="#DFDFDF"/>
<path d="M56.1898 72.4966H52.8103V75.876H56.1898V72.4966Z" fill="#DFDFDF"/>
<path d="M59.4706 72.4966H56.0912V75.876H59.4706V72.4966Z" fill="#DFDFDF"/>
<path d="M66.0328 72.4966H62.6533V75.876H66.0328V72.4966Z" fill="#DFDFDF"/>
<path d="M75.8758 72.4966H72.4963V75.876H75.8758V72.4966Z" fill="#DFDFDF"/>
<path d="M79.1569 72.4966H75.7775V75.876H79.1569V72.4966Z" fill="#DFDFDF"/>
<path d="M85.7191 72.4966H82.3396V75.876H85.7191V72.4966Z" fill="#DFDFDF"/>
<path d="M49.6276 75.7773H46.2482V79.1568H49.6276V75.7773Z" fill="#DFDFDF"/>
<path d="M52.9086 75.7773H49.5292V79.1568H52.9086V75.7773Z" fill="#DFDFDF"/>
<path d="M56.1898 75.7773H52.8103V79.1568H56.1898V75.7773Z" fill="#DFDFDF"/>
<path d="M59.4706 75.7773H56.0912V79.1568H59.4706V75.7773Z" fill="#DFDFDF"/>
<path d="M62.7517 75.7773H59.3722V79.1568H62.7517V75.7773Z" fill="#DFDFDF"/>
<path d="M66.0328 75.7773H62.6533V79.1568H66.0328V75.7773Z" fill="#DFDFDF"/>
<path d="M69.3139 75.7773H65.9344V79.1568H69.3139V75.7773Z" fill="#DFDFDF"/>
<path d="M72.5949 75.7773H69.2155V79.1568H72.5949V75.7773Z" fill="#DFDFDF"/>
<path d="M75.8758 75.7773H72.4963V79.1568H75.8758V75.7773Z" fill="#DFDFDF"/>
<path d="M79.1569 75.7773H75.7775V79.1568H79.1569V75.7773Z" fill="#DFDFDF"/>
<path d="M82.4379 75.7773H79.0585V79.1568H82.4379V75.7773Z" fill="#DFDFDF"/>
<path d="M49.6276 79.0586H46.2482V82.4381H49.6276V79.0586Z" fill="#DFDFDF"/>
<path d="M56.1898 79.0586H52.8103V82.4381H56.1898V79.0586Z" fill="#DFDFDF"/>
<path d="M62.7517 79.0586H59.3722V82.4381H62.7517V79.0586Z" fill="#DFDFDF"/>
<path d="M69.3139 79.0586H65.9344V82.4381H69.3139V79.0586Z" fill="#DFDFDF"/>
<path d="M82.4379 79.0586H79.0585V82.4381H82.4379V79.0586Z" fill="#DFDFDF"/>
<path d="M52.9086 82.3396H49.5292V85.7191H52.9086V82.3396Z" fill="#DFDFDF"/>
<path d="M59.4706 82.3396H56.0912V85.7191H59.4706V82.3396Z" fill="#DFDFDF"/>
<path d="M62.7517 82.3396H59.3722V85.7191H62.7517V82.3396Z" fill="#DFDFDF"/>
<path d="M66.0328 82.3396H62.6533V85.7191H66.0328V82.3396Z" fill="#DFDFDF"/>
<path d="M69.3139 82.3396H65.9344V85.7191H69.3139V82.3396Z" fill="#DFDFDF"/>
<path d="M79.1569 82.3396H75.7775V85.7191H79.1569V82.3396Z" fill="#DFDFDF"/>
<path d="M82.4379 82.3396H79.0585V85.7191H82.4379V82.3396Z" fill="#DFDFDF"/>
<path d="M49.6276 85.6206H46.2482V89.0001H49.6276V85.6206Z" fill="#DFDFDF"/>
<path d="M52.9086 85.6206H49.5292V89.0001H52.9086V85.6206Z" fill="#DFDFDF"/>
<path d="M62.7517 85.6206H59.3722V89.0001H62.7517V85.6206Z" fill="#DFDFDF"/>
<path d="M72.5949 85.6206H69.2155V89.0001H72.5949V85.6206Z" fill="#DFDFDF"/>
<path d="M75.8758 85.6206H72.4963V89.0001H75.8758V85.6206Z" fill="#DFDFDF"/>
<path d="M85.7191 85.6206H82.3396V89.0001H85.7191V85.6206Z" fill="#DFDFDF"/>
<path d="M20 20V42.9672H42.9672V20H20ZM39.6862 39.6862H23.281V23.281H39.6862V39.6862Z" fill="#DFDFDF"/>
<path d="M65.9344 20V42.9672H88.9016V20H65.9344ZM85.6206 39.6862H69.2155V23.281H85.6206V39.6862Z" fill="#DFDFDF"/>
<path d="M20 65.9346V88.9018H42.9672V65.9346H20ZM39.6862 85.6207H23.281V69.2156H39.6862V85.6207Z" fill="#DFDFDF"/>
<path d="M36.4052 26.5623H26.5621V36.4053H36.4052V26.5623Z" fill="#DFDFDF"/>
<path d="M82.3394 26.5623H72.4963V36.4053H82.3394V26.5623Z" fill="#DFDFDF"/>
<path d="M36.4052 72.4966H26.5621V82.3397H36.4052V72.4966Z" fill="#DFDFDF"/>
</svg>
