<svg width="213" height="179" viewBox="0 0 213 179" fill="none" xmlns="http://www.w3.org/2000/svg">
<g opacity="0.67" clip-path="url(#clip0_419_5547)">
<path d="M43.3663 94.9055C33.5066 88.9454 36.8549 74.0058 38.6246 64.8473C39.9145 58.1672 41.6703 51.5482 43.9058 45.1179C45.6436 40.1217 47.493 36.5043 49.0258 43.7843C51.5479 55.7576 42.58 71.1201 38.1329 82.1178C32.997 94.815 27.8213 107.485 23.0119 120.308C17.5037 134.992 13.1323 150.386 6.05948 164.444C4.85513 166.84 4.70384 168.888 3.83194 165.703C3.13919 163.173 3.06553 160.624 3.12724 158.016C3.77819 130.355 20.2966 104.607 42.7154 89.0162C44.3179 87.9029 41.9669 86.8859 40.7984 87.6983C17.6152 103.818 -3.19308 134.404 0.408011 163.913C0.756375 166.765 2.28918 172.015 6.02763 168.892C9.27239 166.179 10.8032 160.654 12.336 156.971C17.2987 145.053 21.282 132.737 25.7729 120.642C31.8663 104.235 38.8117 88.1684 45.0922 71.8361C48.0603 64.1195 58.2803 43.442 48.3828 36.5554C42.5223 32.4778 37.2928 57.9095 36.7215 60.3192C34.2511 70.7484 29.4397 89.4785 41.1467 96.5578C42.2396 97.2227 44.7638 95.7513 43.3663 94.9055ZM64.2821 45.9539C60.3287 55.9681 56.5285 66.0491 52.9115 76.1872C50.2102 83.7603 47.5825 91.3589 45.3032 99.0658C44.2761 102.538 41.728 108.433 43.1055 112.107C45.2555 117.843 58.9571 99.8014 59.5364 99.05C64.3299 92.8421 68.789 86.3725 73.0549 79.8007C74.9222 76.9268 79.218 72.08 79.009 68.3919C78.9951 68.1401 78.6268 67.9335 78.4198 67.8863C72.2149 66.4602 66.3166 86.2191 65.0366 90.0843C63.9557 93.3496 61.535 104.164 65.4526 106.521C68.6456 108.443 73.2739 102.549 74.7948 100.995C76.031 99.7326 73.2242 99.4789 72.4199 100.299C65.5362 107.329 66.0598 99.6323 66.9635 93.6682C67.6901 88.8628 69.9177 84.2363 71.97 79.8636C73.4829 76.6416 75.2447 73.516 77.2214 70.5536C77.1995 70.5871 75.9513 69.9891 75.2486 71.3798C74.7351 72.3987 74.1418 73.3783 73.5665 74.3638C66.3743 86.6676 57.6154 101.361 46.4359 110.498C44.8115 111.826 45.8029 109.184 46.0278 107.67C46.4021 105.171 47.1147 102.713 47.7836 100.281C49.8758 92.6749 52.5233 85.2061 55.155 77.7687C58.9054 67.1684 62.8787 56.6369 67.0093 46.1742C67.5846 44.7245 64.6962 44.9035 64.2821 45.9539ZM97.8605 75.5774C83.4203 67.1389 74.4723 108.517 76.9029 109.072C83.8921 110.667 100.496 81.3133 97.751 78.4611C97.2454 77.9379 95.5055 78.6912 95.0855 79.0532C92.209 81.5415 83.9339 105.573 87.5728 105.716C91.4307 105.87 94.7391 100.897 96.7935 98.4953C100.548 94.1088 107.225 87.5586 108.467 81.7814C108.648 80.9396 106.038 81.8995 105.738 82.1375C103.576 83.8488 95.1771 100.093 99.7237 101.239C106.584 102.972 114.871 87.3088 117.335 83.6796C116.386 83.8449 115.438 84.0121 114.488 84.1793C113.328 86.3017 103.992 102.764 110.272 101.66C117.809 100.333 124.438 88.7841 128.781 83.1879C127.832 83.3531 126.884 83.5203 125.935 83.6875C123.54 88.4733 118.066 97.0378 119.943 102.506C120.614 104.459 124.37 101.405 124.77 100.805C133.774 87.3206 135.753 70.4887 139.794 55.1891C142.622 44.4845 145.78 33.8508 149.476 23.4058C150.917 19.336 152.528 15.3292 154.379 11.4266C155.142 9.81951 156.033 8.28916 157.017 6.80799C160.238 1.95925 166.936 1.20391 167.175 7.71676C167.488 16.2379 161.432 27.395 158.006 34.9228C151.845 48.4501 143.779 61.0961 135.392 73.3606C135.183 73.6694 137.763 73.5553 138.239 72.861C151.489 53.4798 164.273 32.5938 169.763 9.57167C170.868 4.9334 169.198 -1.59124 163.228 0.350217C155.737 2.7854 152.313 9.86476 149.46 16.5566C141.792 34.5491 136.463 54.3807 132.637 73.5219C130.967 81.8818 127.884 89.9092 124.117 97.5689C123.653 98.4934 123.152 99.4002 122.61 100.283C121.028 102.213 121.006 102.427 122.551 100.925C121.85 98.8809 123.655 95.1671 124.328 93.2788C125.556 89.8266 127.145 86.465 128.785 83.1859C129.056 82.645 126.337 83.1741 125.939 83.6855C121.669 89.1873 117.212 94.7029 112.04 99.4061C109.888 101.365 113.191 92.0238 113.611 91.0816C114.733 88.5638 116.013 86.0991 117.339 83.6777C117.584 83.2272 114.908 83.5636 114.492 84.1773C111.453 88.6602 108.357 93.0624 104.73 97.1105C103.813 98.1354 101.274 101.064 101.318 98.159C101.376 94.2131 105.14 84.4664 108.355 81.9231C107.445 82.0431 106.536 82.1611 105.626 82.2791C104.772 86.2505 88.6876 103.614 89.2469 104.367C86.3585 100.478 95.0218 83.9176 96.9189 80.0387C98.0556 77.7117 94.5679 81.6379 94.1897 82.6214C93.3915 84.6927 92.2986 86.6695 91.2654 88.6346C88.4785 93.9456 85.2537 99.0618 81.7521 103.94C80.9419 105.079 80.062 106.161 79.1125 107.186C78.0873 108.01 78.0933 108.144 79.1284 107.591C77.6832 105.669 80.3228 99.5024 80.9479 97.5059C81.9751 94.219 89.1753 73.0518 95.1492 76.5432C95.8599 76.9681 98.2427 75.8017 97.8605 75.5774ZM132.98 94.4511C136.298 92.0808 144.072 85.1234 141.444 80.379C141.151 79.8479 140.315 79.9816 139.825 80.1095C135.882 81.1422 131.821 93.684 137.007 93.442C143.767 93.1293 152.629 83.9767 154.296 77.8946C154.574 76.8757 151.753 77.511 151.421 78.2841C150.095 81.3743 146.484 90.2574 148.409 93.326C148.594 93.6191 149.275 93.5423 149.538 93.5148C154.085 93.0348 172.287 80.556 168.949 75.5676C168.638 75.1014 167.424 75.4043 167.052 75.5814C163.912 77.0704 154.976 90.0095 161.028 91.9785C169.928 94.8721 172.281 77.4618 173.089 72.918C172.13 73.0478 171.172 73.1777 170.213 73.3075C169.275 83.1387 179.141 80.733 185.141 78.3372C192.578 75.367 198.402 77.1825 205.865 76.2383C209.373 75.7938 211.449 73.636 212.405 70.4592C212.687 69.519 209.821 69.9714 209.528 70.8487C206.97 78.5044 201.396 84.9759 196.844 91.593C190.356 101.025 184.05 110.579 177.849 120.196C170.784 131.148 163.91 142.23 157.475 153.555C153.219 161.039 148.23 169.094 146.325 177.558C146.104 178.544 148.996 178.078 149.201 177.171C151.22 168.201 156.637 159.719 161.127 151.818C167.595 140.438 174.608 129.354 181.707 118.349C187.766 108.952 193.971 99.6421 200.313 90.4285C204.741 83.9944 209.9 77.9457 212.405 70.4592C211.445 70.589 210.488 70.7169 209.528 70.8467C206.988 79.2951 197.963 72.798 193.219 73.8641C187.882 75.0621 172.1 83.3059 173.091 72.916C173.193 71.842 170.37 72.4321 170.215 73.3055C169.966 74.7159 164.727 94.0951 162.407 89.4745C161.452 87.5665 162.911 84.8894 163.656 83.178C165.817 78.2192 168.033 76.3288 163.791 81.5356C162.204 83.4829 150.284 94.7462 151.308 88.9415C151.941 85.3378 152.846 81.272 154.3 77.8887C153.342 78.0185 152.383 78.1483 151.425 78.2782C150.748 80.7448 148.674 82.8712 147.06 84.7831C145.616 86.4905 137.14 95.4936 137.612 88.4123C137.785 87.3127 138.064 86.2407 138.448 85.1962C138.655 84.6887 138.86 84.1793 139.067 83.6718C140.954 81.7382 140.879 81.0556 138.84 81.628C141.038 85.5975 133.533 92.0395 130.698 94.0616C129.392 94.992 132.299 94.935 132.98 94.4511ZM88.5621 131.052C96.4949 128.129 104.858 125.992 113.316 125.393C119.061 124.983 124.627 122.753 130.236 122.442C131.081 122.395 133.366 121.045 131.445 121.152C129.41 121.268 127.585 121.771 125.644 122.383C120.289 124.063 114.654 123.963 109.13 124.623C101.792 125.503 94.4326 127.7 87.521 130.245C85.602 130.951 87.4036 131.479 88.5621 131.052ZM206.457 44.7914C205.125 45.6766 204.615 43.6171 204.167 45.1415C203.767 46.4988 203.136 47.8049 202.551 49.0913C198.755 57.4237 194.136 65.4256 189.669 73.4157C188.865 74.8555 191.797 74.9421 192.442 73.7914C197.473 64.7922 203.743 55.3996 206.938 45.5172C207.52 43.7154 206.483 42.1005 204.52 43.4046C202.899 44.4826 205.242 45.5979 206.457 44.7914Z" fill="#F9BD6C"/>
</g>
<defs>
<clipPath id="clip0_419_5547">
<rect width="213" height="179" fill="white"/>
</clipPath>
</defs>
</svg>
