<svg width="107" height="29" viewBox="0 0 107 29" fill="none" xmlns="http://www.w3.org/2000/svg">
<path d="M4.51558 7.11192V6.01836H1.50519L4.27475 2.73769C4.39516 2.55543 4.51558 2.31242 4.51558 2.13016C4.51558 1.76564 4.21454 1.40112 3.73288 1.40112H0.120415V2.43393H3.01039L0.361246 5.59309C0.240831 5.7146 0 6.01836 0 6.38288C0 6.56514 0.0602078 7.17267 0.963324 7.17267H4.51558V7.11192Z" fill="#626262"/>
<path d="M7.7709 3.52521C7.7709 3.09994 7.83111 2.85693 7.95152 2.67467C8.13215 2.49241 8.43318 2.43165 8.67402 2.43165H9.3363V1.27734H8.67402C8.01173 1.27734 7.53007 1.4596 7.16882 1.76337C6.68716 2.31015 6.62695 2.85693 6.62695 3.4037V7.10964H7.83111V3.52521H7.7709Z" fill="#626262"/>
<path d="M13.4858 7.17012C14.0878 7.17012 14.991 7.10936 15.593 6.50183C15.9543 6.13731 16.3155 5.46903 16.3155 4.19321C16.3155 3.16041 16.0747 2.37062 15.593 1.88459C14.991 1.27706 14.1481 1.21631 13.4858 1.21631C12.8235 1.21631 11.9806 1.27706 11.3785 1.88459C10.8968 2.37062 10.656 3.16041 10.656 4.19321C10.656 5.46903 11.0775 6.19807 11.3785 6.50183C11.9806 7.10936 12.8837 7.17012 13.4858 7.17012ZM11.8602 4.25397C11.8602 3.82869 11.8602 3.09966 12.1612 2.73514C12.4622 2.43137 13.0041 2.37062 13.4858 2.37062C13.9674 2.37062 14.5093 2.43137 14.8103 2.73514C15.1114 3.09966 15.1114 3.82869 15.1114 4.25397C15.1114 4.61848 15.1114 5.28677 14.8103 5.65129C14.5093 6.01581 13.9674 6.01581 13.4858 6.01581C13.0041 6.01581 12.4622 5.95505 12.1612 5.65129C11.8602 5.28677 11.8602 4.67924 11.8602 4.25397Z" fill="#626262"/>
<path d="M2.70704 12.093H1.44268V10.4526H0.238525V16.771C0.238525 16.9532 0.238525 17.3785 0.599772 17.6823C0.840603 17.8645 1.20185 17.9253 1.6233 17.9253H2.70704C3.30912 17.9253 4.21224 17.8038 4.7541 16.8925C5.11535 16.3457 5.11535 15.6774 5.11535 15.0699C5.11535 14.5838 5.11535 13.7333 4.6939 13.1258C4.15203 12.093 3.06829 12.093 2.70704 12.093ZM1.44268 16.771V13.2473H2.64683C3.06829 13.2473 3.54995 13.308 3.73057 13.7941C3.85099 14.0978 3.9112 14.7054 3.9112 15.2521C3.9112 15.6167 3.9112 16.0419 3.73057 16.2849C3.48974 16.7102 3.06829 16.771 2.58663 16.771H1.44268C1.50289 16.771 1.44268 16.771 1.44268 16.771Z" fill="#626262"/>
<path d="M8.84585 10.4526H7.7019V17.9253H8.84585V10.4526Z" fill="#626262"/>
<path d="M15.1111 12.4575C14.6294 12.1538 14.0273 12.093 13.6661 12.093C13.1844 12.093 12.4017 12.1538 11.8598 12.6398C11.1374 13.2473 11.0771 14.2194 11.0771 15.0092C11.0771 15.8597 11.1374 16.528 11.5588 17.1355C11.9201 17.6216 12.4619 17.9253 13.1844 17.9253H16.0142V16.771H13.1844C12.6425 16.771 12.4017 16.3457 12.4017 16.1027C12.3415 15.9812 12.3415 15.7382 12.3415 15.4952H15.0509C15.3519 15.4952 15.6529 15.4344 15.8336 15.2522C16.0744 15.0699 16.1346 14.7662 16.1346 14.3409C16.1346 13.5511 15.7734 12.8221 15.1111 12.4575ZM12.4619 13.6726C12.7028 13.2473 13.064 13.1866 13.6059 13.1866C14.0875 13.1866 14.3886 13.1866 14.6896 13.4903C14.81 13.6118 14.9304 13.9156 14.9304 14.3409H12.2813C12.2813 14.0979 12.3415 13.8549 12.4619 13.6726Z" fill="#626262"/>
<path d="M3.06985 22.9067H1.26362C1.1432 22.9067 0.721747 22.9067 0.480916 23.2105C0.300293 23.4535 0.300293 23.6965 0.300293 23.8788V28.6783H1.50445V24.0003H3.13006C3.43109 24.0003 3.61172 24.061 3.67193 24.1826C3.79234 24.3041 3.79234 24.4863 3.79234 24.9116V28.6783H4.9965V24.7901C4.9965 24.1826 4.81587 23.6965 4.51483 23.332C4.09338 22.9675 3.55151 22.9067 3.06985 22.9067Z" fill="#626262"/>
<path d="M9.87078 22.8447C9.20849 22.8447 8.36559 22.9055 7.76351 23.513C7.28185 23.999 7.04102 24.7888 7.04102 25.8216C7.04102 27.0974 7.46247 27.8265 7.76351 28.1302C8.36559 28.7378 9.2687 28.7985 9.87078 28.7985C10.4729 28.7985 11.376 28.7378 11.9781 28.1302C12.3393 27.7657 12.7005 27.0974 12.7005 25.8216C12.7005 24.7888 12.4597 23.999 11.9781 23.513C11.376 22.9055 10.5331 22.8447 9.87078 22.8447ZM8.54621 24.3636C8.84725 24.0598 9.38912 23.999 9.87078 23.999C10.3524 23.999 10.8943 24.0598 11.1954 24.3636C11.4964 24.7281 11.4964 25.4571 11.4964 25.8824C11.4964 26.2469 11.4964 26.9152 11.1954 27.2797C10.8943 27.6442 10.3524 27.6442 9.87078 27.6442C9.38912 27.6442 8.84725 27.5835 8.54621 27.2797C8.24517 26.9152 8.24517 26.2469 8.24517 25.8216C8.24517 25.4571 8.24517 24.7281 8.54621 24.3636Z" fill="#626262"/>
<path d="M16.1394 22.9067H14.875V24.3648H16.1394V22.9067Z" fill="#626262"/>
<path d="M16.1394 27.281H14.875V28.7391H16.1394V27.281Z" fill="#626262"/>
<path d="M21.312 0V28.797H106.145V0L21.312 0ZM103.556 26.2454H23.8407V2.55163H103.556V26.2454Z" fill="#626262"/>
<path d="M30.6473 19.0179H38.3539C39.4979 19.0179 39.5581 18.0459 39.5581 17.5599C39.5581 17.0131 39.4377 16.4055 38.2937 16.1018L32.6342 14.4614C32.4536 14.4007 31.6106 14.0969 31.0688 13.4894C30.4667 12.7604 30.4065 11.7276 30.4065 10.9985C30.4065 10.2087 30.5269 9.23668 31.2494 8.56839C31.9117 7.90011 32.7546 7.83936 33.4169 7.83936H41.4245V9.78346H34.2598C33.8985 9.78346 33.5373 9.78346 33.2363 10.0872C32.9352 10.391 32.875 10.877 32.875 11.12C32.875 11.7276 33.0556 12.2743 34.0792 12.5781L39.3172 14.0969C40.2204 14.4007 40.7622 14.6437 41.1837 15.0082C41.9664 15.7373 42.0266 16.9523 42.0266 17.5599C42.0266 18.4104 41.9062 19.3217 41.3643 19.99C40.702 20.8405 39.9193 20.9013 39.0162 20.9013H30.6473V19.0179Z" fill="#626262"/>
<path d="M60.9268 20.9611H58.4583V15.1895H51.6548V20.9611H49.1863V7.83838H51.6548V13.2454H58.4583V7.83838H60.9268V20.9611Z" fill="#626262"/>
<path d="M79.6541 9.05382C81.0389 10.3904 81.1593 12.6383 81.1593 14.4001C81.1593 16.1012 81.0389 18.4098 79.6541 19.7464C78.2092 21.1437 75.9815 21.1437 74.4763 21.1437C72.9109 21.1437 70.7434 21.1437 69.2984 19.7464C67.7932 18.2883 67.7932 15.9189 67.7932 14.4001C67.7932 12.6383 67.9136 10.3904 69.2984 9.05382C70.7434 7.65649 72.9109 7.65649 74.4763 7.65649C76.0417 7.65649 78.2694 7.65649 79.6541 9.05382ZM71.1046 18.0453C71.8873 19.0173 73.0915 19.1388 74.4763 19.1388C75.8008 19.1388 77.0652 19.0173 77.8479 18.0453C78.2694 17.4985 78.6306 16.5265 78.6306 14.4001C78.6306 12.1522 78.2092 11.2409 77.8479 10.6942C77.0652 9.7221 75.8008 9.60059 74.4763 9.60059C73.0915 9.60059 71.8873 9.7221 71.1046 10.6942C70.623 11.3624 70.3219 12.3952 70.3219 14.4001C70.3219 16.5265 70.6832 17.4985 71.1046 18.0453Z" fill="#626262"/>
<path d="M90.5564 20.8964H93.0249V18.3447H90.5564V20.8964Z" fill="#626262"/>
<path d="M97.8411 10.8147C97.8411 10.2071 97.7809 9.47811 97.3594 8.80983C97.239 8.62757 97.1788 8.50606 97.0584 8.38456C96.6972 8.02004 96.2757 7.77702 95.6736 7.71627C95.493 7.71627 95.0716 7.65552 94.6501 7.65552H86.8833V9.59962H94.048C94.4093 9.59962 94.7705 9.59962 95.0715 9.90338C95.3726 10.2071 95.4328 10.6932 95.4328 10.9362C95.4328 11.5437 95.192 12.0297 94.2286 12.3943C93.6868 12.6373 92.1816 13.1841 91.8805 13.4271C91.4591 13.7308 91.0978 14.0954 90.9172 14.6421C90.7366 15.1282 90.6162 15.5534 90.6162 16.404H93.0245C93.0245 16.404 93.0245 16.2217 93.0245 16.1002C93.0245 15.9787 93.0245 15.8572 93.0847 15.7357C93.0847 15.6142 93.1449 15.5534 93.2051 15.4927C93.2653 15.4319 93.3255 15.3712 93.4459 15.3104C93.5664 15.2497 93.747 15.1889 93.9276 15.1282C93.9276 15.1282 96.0951 14.2776 96.5165 14.0346C96.7574 13.8523 96.9982 13.6093 97.1788 13.4271C97.7809 12.6373 97.8411 11.6045 97.8411 10.8147Z" fill="#626262"/>
</svg>
